# xmcd
#
# Track frame offsets:
#	150
#	476
#	17334
#	32740
#	46862
#	68539
#	85360
#	100042
#	109924
#	130505
#	157028
#	177955
#	187889
#
# Disc length: 2725 seconds
#
# Revision: 1
# Processed by: cddbd v1.4PL0 Copyright (c) Steve Scherf et al.
# Submitted via: audiograbber 1.81.01
#
DISCID=8f0aa30d
DTITLE=Intercity - Pewnej Milosci
DYEAR=2000
DGENRE=Top 40
TTITLE0=Przyjazdy
TTITLE1=Nic Dwa Razy
TTITLE2=Miedzy Nami Nic Nie Bylo
TTITLE3=Ta Lza
TTITLE4=Bliscy i Oddaleni
TTITLE5=Kochanka
TTITLE6=Przyjscie
TTITLE7=Hymn Rozpustnikow
TTITLE8=Pytasz, Co W Moim Zyciu Z Wszystkich Rzecza Glowna
TTITLE9=Spieszmy Sie Kochac Ludzi
TTITLE10=Blues Sierpniowy
TTITLE11=Daremne Zale
TTITLE12=Odjazdy
EXTD=Zgral Bartymeusz [2003]
EXTT0=
EXTT1=
EXTT2=
EXTT3=
EXTT4=
EXTT5=
EXTT6=
EXTT7=
EXTT8=
EXTT9=
EXTT10=
EXTT11=
EXTT12=
PLAYORDER=
